<?xml version="1.0" standalone="no"?>
<!DOCTYPE svg PUBLIC "-//W3C//DTD SVG 20010904//EN"
 "http://www.w3.org/TR/2001/REC-SVG-20010904/DTD/svg10.dtd">
<svg version="1.0" xmlns="http://www.w3.org/2000/svg"
 width="248.000000pt" height="261.000000pt" viewBox="0 0 248.000000 261.000000"
 preserveAspectRatio="xMidYMid meet">

<g transform="translate(0.000000,261.000000) scale(0.100000,-0.100000)"
fill="#000000" stroke="none">
<path d="M944 2216 c-154 -88 -366 -210 -471 -271 l-193 -110 0 -551 0 -551
183 -105 c100 -58 312 -181 471 -273 l288 -166 157 89 c86 49 244 141 351 203
107 62 211 122 231 133 21 12 76 43 123 70 l86 50 -2 549 -3 550 -280 162
c-154 89 -366 211 -471 272 l-191 111 -279 -162z m441 -151 c168 -98 293 -170
470 -272 l120 -69 3 -440 2 -440 -102 -59 c-57 -32 -227 -131 -378 -218 l-275
-159 -30 16 c-16 9 -187 108 -380 219 l-350 202 -3 436 -2 437 147 85 c82 46
254 145 383 220 129 74 237 134 240 132 3 -1 73 -42 155 -90z"/>
<path d="M960 1932 c-140 -81 -294 -170 -343 -197 l-87 -50 2 -403 3 -404 345
-198 345 -199 30 18 c70 43 603 350 633 365 l32 17 -2 401 -3 402 -340 197
c-187 109 -344 198 -350 198 -5 0 -125 -66 -265 -147z m733 -336 l37 -21 -2
-294 -3 -294 -145 -83 c-80 -46 -193 -111 -252 -144 l-106 -61 -249 144 -248
143 -3 296 -2 295 252 145 252 145 216 -125 c118 -68 232 -134 253 -146z"/>
<path d="M1150 1751 c-36 -21 -134 -77 -218 -125 l-152 -88 2 -256 3 -256 219
-127 218 -126 219 126 219 126 -2 259 -3 258 -214 124 c-118 68 -217 124 -220
123 -3 0 -35 -17 -71 -38z m202 -243 l128 -73 0 -151 0 -152 -124 -71 c-68
-39 -128 -71 -134 -71 -12 0 -160 84 -225 128 l-38 25 3 145 3 145 125 73 c69
40 127 73 129 73 3 1 62 -32 133 -71z"/>
</g>
</svg>
